<svg width="44" height="38" viewBox="0 0 44 38" fill="none" xmlns="http://www.w3.org/2000/svg">
<g clip-path="url(#clip0_360_1493)">
<path d="M2.68279 0.00293751H16.1053C16.6907 0.0031965 17.2521 0.235881 17.6661 0.64986C18.0801 1.06384 18.3128 1.62524 18.313 2.21069V15.6302C18.3128 16.2157 18.0801 16.7771 17.6661 17.1911C17.2521 17.605 16.6907 17.8377 16.1053 17.838H9.68136C9.60999 20.8361 10.463 23.7835 12.1247 26.28C13.5716 28.1241 15.4802 29.553 17.6572 30.4219C17.9263 30.5415 18.1686 30.7138 18.37 30.9286C18.5714 31.1434 18.7277 31.3964 18.8297 31.6726C18.9318 31.9488 18.9774 32.2426 18.964 32.5367C18.9506 32.8309 18.8785 33.1193 18.7518 33.3851L17.1617 36.7412C16.9155 37.2581 16.4782 37.6592 15.9419 37.8598C15.4057 38.0604 14.8124 38.0448 14.2875 37.8163C11.5494 36.6757 9.04085 35.0482 6.88333 33.0128C4.53665 30.8155 2.79807 28.0488 1.83647 24.9812C0.804131 20.9927 0.343427 16.8779 0.468203 12.7598V2.20483C0.470015 1.61921 0.704357 1.05827 1.11965 0.645367C1.53494 0.23246 2.09717 0.00137995 2.68279 0.00293751Z" fill="#002744"/>
<path d="M38.8442 37.8084C36.1235 36.6588 33.6285 35.0354 31.4752 33.0137C29.1167 30.8323 27.3654 28.0755 26.3932 25.0134C25.36 21.0143 24.9022 16.8882 25.0337 12.7598V2.20482C25.0356 1.62055 25.2688 1.06081 25.6824 0.648122C26.096 0.235438 26.6563 0.00344394 27.2405 0.00292969H40.663C41.2484 0.00318868 41.8098 0.235873 42.2238 0.649852C42.6378 1.06383 42.8705 1.62523 42.8707 2.21069V15.6302C42.8705 16.2157 42.6378 16.7771 42.2238 17.191C41.8098 17.605 41.2484 17.8377 40.663 17.838H34.2381C34.1667 20.8361 35.0197 23.7835 36.6814 26.28C38.1284 28.124 40.037 29.5529 42.214 30.4219C42.4829 30.5415 42.7251 30.7138 42.9264 30.9285C43.1277 31.1432 43.284 31.3961 43.386 31.6722C43.488 31.9483 43.5337 32.242 43.5204 32.536C43.5071 32.83 43.4351 33.1184 43.3086 33.3841L41.7234 36.7305C41.4766 37.2481 41.0385 37.6497 40.5014 37.8508C39.9644 38.0519 39.3703 38.0367 38.8442 37.8084Z" fill="#002744"/>
</g>
<defs>
<clipPath id="clip0_360_1493">
<rect width="43.0508" height="38" fill="white" transform="translate(0.474609)"/>
</clipPath>
</defs>
</svg>
