<svg width="221" height="214" viewBox="0 0 221 214" fill="none" xmlns="http://www.w3.org/2000/svg">
<path d="M110.739 202.867C59.5153 203.207 17.7149 161.958 17.3748 110.734C17.0348 59.5112 58.2838 17.7108 109.507 17.3707C160.73 17.0307 202.531 58.2796 202.871 109.503C203.211 160.726 161.962 202.527 110.739 202.867Z" fill="#37489F" stroke="#EBEBEC" stroke-width="1.5"/>
<path d="M105.301 189.375C104.343 189.307 103.53 189.044 102.86 188.586C102.191 188.128 101.693 187.506 101.368 186.721C101.042 185.936 100.917 185.015 100.992 183.958C101.066 182.9 101.32 182.006 101.752 181.275C102.185 180.543 102.765 179.998 103.492 179.638C104.219 179.279 105.062 179.133 106.019 179.2C106.967 179.267 107.775 179.53 108.445 179.988C109.114 180.446 109.612 181.068 109.937 181.853C110.263 182.638 110.388 183.559 110.313 184.616C110.239 185.674 109.985 186.568 109.552 187.299C109.12 188.031 108.54 188.576 107.813 188.936C107.086 189.295 106.248 189.442 105.301 189.375ZM105.399 187.983C106.017 188.027 106.561 187.92 107.031 187.662C107.49 187.404 107.859 187.009 108.137 186.477C108.415 185.946 108.582 185.286 108.638 184.498C108.692 183.72 108.62 183.043 108.42 182.467C108.219 181.902 107.91 181.459 107.491 181.139C107.063 180.818 106.539 180.635 105.921 180.592C105.293 180.547 104.749 180.654 104.289 180.913C103.82 181.17 103.446 181.565 103.168 182.097C102.889 182.638 102.722 183.298 102.667 184.076C102.612 184.864 102.684 185.541 102.885 186.107C103.086 186.672 103.4 187.115 103.829 187.436C104.247 187.757 104.77 187.939 105.399 187.983Z" fill="white"/>
<path d="M89.0692 186.513L90.4694 180.57C90.7699 179.295 91.3316 178.416 92.1545 177.932C92.9775 177.447 94.0314 177.357 95.3162 177.659C96.5816 177.958 97.4792 178.508 98.0092 179.311C98.5295 180.112 98.6393 181.15 98.3389 182.425L96.9387 188.367L95.3765 187.999L96.732 182.246C96.9453 181.341 96.9088 180.624 96.6227 180.094C96.3366 179.564 95.7944 179.205 94.9963 179.017C94.1884 178.827 93.5382 178.905 93.0457 179.251C92.5531 179.597 92.2002 180.223 91.9869 181.128L90.6315 186.881L89.0692 186.513Z" fill="white"/>
<path d="M80.7567 183.577C79.7747 183.177 79.0963 182.616 78.7215 181.891C78.3374 181.163 78.3148 180.382 78.6537 179.548C79.0038 178.687 79.5667 178.138 80.3424 177.903C81.105 177.673 81.9773 177.758 82.9593 178.157L83.1322 178.13L85.2583 178.994L86.7493 175.326L88.2223 175.924L84.4948 185.096L80.7567 183.577ZM82.6017 179.356C81.9996 179.111 81.506 179.051 81.1209 179.175C80.7228 179.304 80.4202 179.624 80.2131 180.133C80.0098 180.634 80.0055 181.069 80.2003 181.44C80.3858 181.807 80.7797 182.112 81.3818 182.357L83.5357 183.233L84.7557 180.231L82.6017 179.356ZM81.8505 178.694L80.7323 172.88L82.4415 173.575L83.3662 178.63L81.8505 178.694Z" fill="white"/>
<path d="M72.589 169.803L68.0724 166.735L68.8478 165.593L74.6921 169.563L69.1294 177.752L67.8017 176.851L72.589 169.803Z" fill="white"/>
<path d="M57.3205 168.943C56.6132 168.294 56.1402 167.582 55.9016 166.806C55.663 166.031 55.6606 165.235 55.8944 164.418C56.1283 163.601 56.6035 162.802 57.3201 162.021C58.0368 161.24 58.792 160.698 59.5858 160.395C60.3796 160.092 61.173 160.026 61.966 160.197C62.759 160.368 63.5091 160.778 64.2165 161.427C64.9165 162.069 65.3858 162.778 65.6244 163.554C65.863 164.329 65.8654 165.125 65.6315 165.942C65.3977 166.759 64.9225 167.558 64.2058 168.339C63.4892 169.12 62.734 169.662 61.9402 169.965C61.1463 170.268 60.353 170.334 59.56 170.163C58.767 169.992 58.0205 169.585 57.3205 168.943ZM58.2637 167.915C58.7205 168.334 59.2127 168.589 59.7404 168.68C60.2606 168.763 60.7951 168.684 61.3438 168.441C61.8925 168.198 62.4339 167.785 62.968 167.203C63.4953 166.628 63.8599 166.054 64.0616 165.479C64.2566 164.911 64.29 164.372 64.1619 163.861C64.0264 163.343 63.7302 162.874 63.2734 162.455C62.8092 162.029 62.3169 161.774 61.7967 161.69C61.269 161.6 60.7309 161.676 60.1822 161.919C59.6267 162.169 59.0854 162.582 58.558 163.157C58.0239 163.739 57.6594 164.314 57.4644 164.881C57.2694 165.449 57.2396 165.991 57.3751 166.509C57.5033 167.02 57.7995 167.489 58.2637 167.915Z" fill="white"/>
<path d="M51.8841 151.836C52.4774 151.617 53.063 151.532 53.6409 151.581C54.2109 151.637 54.7468 151.81 55.2484 152.1C55.75 152.39 56.204 152.788 56.6105 153.296C57.2047 154.037 57.5607 154.809 57.6785 155.612C57.7964 156.414 57.6776 157.201 57.3223 157.973C56.9669 158.745 56.3757 159.462 55.5486 160.125C54.7214 160.788 53.8926 161.209 53.0619 161.388C52.2312 161.567 51.437 161.511 50.6793 161.221C49.9216 160.932 49.2488 160.42 48.6609 159.687C48.2544 159.179 47.9587 158.667 47.774 158.148C47.583 157.622 47.5122 157.102 47.5617 156.588C47.6112 156.074 47.7841 155.571 48.0804 155.077L49.5546 155.837C49.2193 156.362 49.0651 156.857 49.0921 157.322C49.1113 157.794 49.3116 158.268 49.6931 158.744C50.0746 159.22 50.5224 159.547 51.0363 159.724C51.5503 159.902 52.1032 159.92 52.6949 159.779C53.2805 159.63 53.8814 159.309 54.4979 158.814C55.1065 158.327 55.5542 157.814 55.8411 157.276C56.1202 156.745 56.2321 156.213 56.177 155.681C56.1218 155.148 55.8973 154.636 55.5032 154.145C55.1217 153.669 54.6725 153.356 54.1554 153.207C53.6243 153.056 53.0535 153.103 52.4431 153.349L51.8841 151.836Z" fill="white"/>
<path d="M48.6837 141.391L49.534 142.857L47.7631 144.976L49.8474 148.571L52.5664 148.087L53.3941 149.514L42.9562 151.249L41.993 149.588L48.6837 141.391ZM48.4928 148.836L46.8599 146.02L43.6759 149.739L48.4928 148.836Z" fill="white"/>
<path d="M35.9077 136.44L37.187 135.923L38.4581 139.066L46.3565 135.871L46.9583 137.359L39.0599 140.554L40.331 143.696L39.0517 144.214L35.9077 136.44Z" fill="white"/>
<path d="M34.5824 131.897L44.1103 129.208L44.5462 130.752L35.0184 133.441L34.5824 131.897Z" fill="white"/>
<path d="M32.4971 123.113C32.3472 122.165 32.42 121.313 32.7156 120.558C33.0113 119.802 33.5048 119.177 34.1961 118.683C34.8874 118.189 35.7566 117.859 36.8036 117.694C37.8506 117.528 38.7791 117.574 39.5891 117.831C40.3991 118.087 41.0613 118.529 41.5756 119.157C42.0899 119.784 42.422 120.572 42.5719 121.52C42.7203 122.458 42.6467 123.305 42.351 124.061C42.0554 124.816 41.5619 125.441 40.8706 125.935C40.1792 126.429 39.3101 126.759 38.2631 126.924C37.2161 127.09 36.2876 127.044 35.4776 126.788C34.6676 126.531 34.0054 126.089 33.4911 125.462C32.9768 124.834 32.6455 124.051 32.4971 123.113ZM33.875 122.895C33.9718 123.508 34.1986 124.013 34.5553 124.413C34.9105 124.802 35.3784 125.072 35.9591 125.223C36.5399 125.374 37.2204 125.388 38.0007 125.265C38.7711 125.143 39.4142 124.92 39.9298 124.595C40.4356 124.272 40.7973 123.871 41.015 123.391C41.2312 122.901 41.2909 122.35 41.194 121.738C41.0956 121.116 40.8689 120.61 40.5137 120.22C40.157 119.821 39.6882 119.546 39.1075 119.395C38.5169 119.245 37.8364 119.231 37.066 119.353C36.2856 119.477 35.6426 119.7 35.1368 120.023C34.6311 120.346 34.2701 120.752 34.054 121.242C33.8362 121.722 33.7766 122.273 33.875 122.895Z" fill="white"/>
<path d="M31.6793 106.113L41.5789 106.2L41.5621 108.105L35.2887 111.875L33.5253 112.819L33.5252 112.834L35.1307 112.788L41.5204 112.845L41.5075 114.314L31.6079 114.227L31.6245 112.337L37.8828 108.582L39.6763 107.623L39.6764 107.608L38.056 107.654L31.6662 107.598L31.6793 106.113Z" fill="white"/>
<path d="M32.4418 98.2002C32.586 97.322 32.8785 96.5897 33.3193 96.0033C33.7502 95.4154 34.3228 94.952 35.0371 94.6132L35.8835 95.8466C35.2496 96.1277 34.7705 96.4848 34.446 96.9179C34.1133 97.3396 33.8943 97.8711 33.789 98.5126C33.7113 98.9862 33.7114 99.3865 33.7895 99.7135C33.8675 100.04 34.003 100.296 34.1958 100.479C34.3803 100.652 34.6058 100.76 34.8722 100.803C35.1781 100.853 35.4616 100.794 35.7226 100.624C35.9852 100.444 36.2284 100.073 36.4523 99.5122L37.2219 97.6016C37.5846 96.6883 38.0106 96.0691 38.4997 95.7441C38.9888 95.419 39.559 95.3099 40.2103 95.4168C40.8122 95.5157 41.3085 95.7643 41.6991 96.1629C42.0897 96.5614 42.3556 97.0712 42.4969 97.6923C42.6398 98.3035 42.6472 98.9989 42.5192 99.7785C42.4059 100.469 42.215 101.076 41.9467 101.6C41.6783 102.123 41.3572 102.567 40.9832 102.931C40.6093 103.296 40.2031 103.578 39.7646 103.78L38.8491 102.505C39.2285 102.354 39.5823 102.144 39.9104 101.874C40.2287 101.602 40.4958 101.27 40.7119 100.88C40.9296 100.48 41.0805 100.024 41.1648 99.5105C41.2393 99.0566 41.249 98.6579 41.1939 98.3144C41.1404 97.9611 41.0238 97.6836 40.8442 97.4818C40.6562 97.2685 40.4142 97.1376 40.1182 97.089C39.832 97.042 39.5642 97.0994 39.3147 97.2611C39.0668 97.413 38.8408 97.7407 38.6365 98.2443L37.7957 100.31C37.5702 100.881 37.3075 101.34 37.0075 101.686C36.7075 102.032 36.3743 102.271 36.008 102.403C35.6319 102.534 35.2316 102.565 34.8073 102.495C34.2547 102.404 33.7807 102.175 33.3852 101.806C32.9815 101.425 32.6934 100.927 32.5209 100.311C32.3386 99.6932 32.3122 98.9896 32.4418 98.2002Z" fill="white"/>
<path d="M42.7609 85.886C42.5552 86.4389 42.2174 86.8308 41.7476 87.0614C41.2718 87.2792 40.7668 87.2888 40.2325 87.0901C39.6889 86.8879 39.3176 86.5524 39.1185 86.0836C38.9136 85.6019 38.9139 85.0846 39.1196 84.5316C39.3288 83.9693 39.6665 83.5774 40.1329 83.3561C40.59 83.1314 41.0903 83.1201 41.6339 83.3223C42.1682 83.521 42.5442 83.8582 42.762 84.334C42.9704 84.8063 42.9701 85.3236 42.7609 85.886Z" fill="white"/>
<path d="M43.3459 68.8421C43.8559 68.0288 44.4704 67.4345 45.1897 67.0592C45.9089 66.6839 46.6914 66.5371 47.5371 66.6189C48.3829 66.7007 49.2548 67.0231 50.1529 67.5862C51.051 68.1492 51.721 68.7936 52.1631 69.5193C52.6051 70.245 52.8139 71.0132 52.7894 71.8241C52.765 72.6349 52.4977 73.4471 51.9878 74.2604C51.4831 75.0653 50.8712 75.6554 50.152 76.0306C49.4328 76.4059 48.6503 76.5527 47.8045 76.4709C46.9588 76.3892 46.0869 76.0667 45.1888 75.5037C44.2907 74.9406 43.6206 74.2962 43.1786 73.5705C42.7365 72.8449 42.5278 72.0766 42.5522 71.2657C42.5767 70.4549 42.8413 69.647 43.3459 68.8421ZM44.5278 69.5832C44.1985 70.1084 44.0371 70.6387 44.0438 71.1741C44.0557 71.7009 44.231 72.2121 44.5695 72.7076C44.908 73.2031 45.4119 73.6606 46.0812 74.0803C46.742 74.4946 47.3734 74.7489 47.9754 74.843C48.5689 74.9318 49.1053 74.8669 49.5847 74.6481C50.0695 74.4209 50.4765 74.0447 50.8059 73.5194C51.1405 72.9856 51.3019 72.4553 51.2899 71.9285C51.2833 71.3932 51.1107 70.8778 50.7722 70.3823C50.4252 69.8814 49.9213 69.4239 49.2605 69.0095C48.5911 68.5899 47.9597 68.3356 47.3663 68.2468C46.7728 68.158 46.2337 68.2272 45.7489 68.4544C45.2695 68.6731 44.8625 69.0494 44.5278 69.5832Z" fill="white"/>
<path d="M53.5023 55.8766L58.0896 59.9049C59.074 60.7693 59.5864 61.6785 59.6271 62.6325C59.6677 63.5864 59.2525 64.5594 58.3815 65.5512C57.5237 66.528 56.6159 67.0617 55.6581 67.1522C54.7069 67.2351 53.7391 66.8444 52.7548 65.98L48.1675 61.9517L49.2265 60.7457L53.6673 64.6453C54.3661 65.259 55.0165 65.564 55.6186 65.5604C56.2207 65.5568 56.7922 65.2469 57.3333 64.6307C57.881 64.0071 58.1177 63.3965 58.0435 62.799C57.9693 62.2015 57.5828 61.5959 56.884 60.9823L52.4433 57.0826L53.5023 55.8766Z" fill="white"/>
<path d="M59.9728 49.93C60.7852 49.2491 61.5993 48.9127 62.4149 48.9207C63.2382 48.9222 63.9388 49.2679 64.5169 49.9577C65.1143 50.6705 65.3353 51.4247 65.18 52.2202C65.026 53.0017 64.5428 53.7328 63.7303 54.4137L63.6732 54.579L61.9142 56.0531L64.4577 59.0882L63.2391 60.1095L56.8802 52.5217L59.9728 49.93ZM62.8387 53.5365C63.3369 53.119 63.6213 52.7111 63.6919 52.3127C63.7637 51.9002 63.623 51.4832 63.2697 51.0617C62.9229 50.6478 62.5401 50.4401 62.1214 50.4387C61.7104 50.4309 61.2558 50.6358 60.7576 51.0533L58.9756 52.5466L61.0567 55.0299L62.8387 53.5365ZM63.7749 53.1825L69.4358 54.9164L68.0217 56.1015L63.1219 54.5517L63.7749 53.1825Z" fill="white"/>
<path d="M75.8837 49.1962L80.7049 46.6335L81.3526 47.8521L75.1142 51.1681L70.4676 42.4263L71.8848 41.6729L75.8837 49.1962Z" fill="white"/>
<path d="M83.8286 36.0731C84.7339 35.7536 85.5848 35.6707 86.3813 35.8243C87.1779 35.978 87.8818 36.3499 88.4931 36.9401C89.1044 37.5303 89.5864 38.3252 89.9392 39.3247C90.292 40.3243 90.4157 41.2457 90.3103 42.0888C90.2049 42.9319 89.8904 43.6633 89.3668 44.2829C88.8431 44.9025 88.1287 45.3721 87.2234 45.6916C86.3276 46.0078 85.4814 46.089 84.6848 45.9354C83.8883 45.7817 83.1843 45.4098 82.5731 44.8196C81.9618 44.2294 81.4797 43.4345 81.127 42.435C80.7742 41.4354 80.6505 40.514 80.7558 39.6709C80.8612 38.8278 81.1757 38.0964 81.6994 37.4768C82.223 36.8572 82.9328 36.3893 83.8286 36.0731ZM84.2929 37.3886C83.7082 37.5949 83.252 37.9097 82.9242 38.333C82.6058 38.7529 82.4249 39.2621 82.3817 39.8606C82.3384 40.4591 82.4482 41.1309 82.7112 41.8758C82.9708 42.6114 83.3069 43.2032 83.7196 43.6514C84.129 44.0902 84.5894 44.3731 85.1008 44.5001C85.6217 44.6238 86.1745 44.5825 86.7591 44.3761C87.3532 44.1664 87.8094 43.8516 88.1278 43.4317C88.4557 43.0085 88.6412 42.4976 88.6845 41.8991C88.7244 41.2911 88.6146 40.6194 88.355 39.8839C88.092 39.1389 87.7559 38.5471 87.3465 38.1083C86.9371 37.6695 86.472 37.3883 85.9512 37.2646C85.4397 37.1376 84.887 37.1789 84.2929 37.3886Z" fill="white"/>
<path d="M101.259 39.3407C101.174 39.9674 100.975 40.5244 100.66 41.0116C100.343 41.4889 99.9394 41.8811 99.448 42.1881C98.9566 42.495 98.3916 42.7091 97.753 42.8302C96.8197 43.0073 95.9709 42.9596 95.2068 42.6873C94.4426 42.4149 93.8031 41.9408 93.2881 41.2649C92.7731 40.5891 92.4168 39.7304 92.2193 38.689C92.0217 37.6475 92.0388 36.7181 92.2705 35.9006C92.5022 35.0831 92.9237 34.4077 93.535 33.8744C94.1464 33.3411 94.9138 32.9869 95.8373 32.8117C96.4759 32.6906 97.0675 32.67 97.6119 32.7499C98.1662 32.828 98.6586 33.0094 99.0892 33.2941C99.5198 33.5789 99.8837 33.9679 100.181 34.4611L98.8182 35.4066C98.5117 34.8643 98.1467 34.4958 97.723 34.3014C97.2975 34.0971 96.785 34.0518 96.1857 34.1655C95.5864 34.2792 95.0878 34.5214 94.6899 34.892C94.292 35.2627 94.0166 35.7424 93.8637 36.3312C93.7206 36.9182 93.7226 37.5997 93.8698 38.3759C94.0152 39.1422 94.258 39.7781 94.5981 40.2836C94.9364 40.7792 95.3537 41.1276 95.8498 41.3286C96.346 41.5297 96.9036 41.5715 97.5225 41.4541C98.1218 41.3404 98.6087 41.0903 98.9833 40.7037C99.3657 40.3054 99.5916 39.7791 99.6609 39.1247L101.259 39.3407Z" fill="white"/>
<path d="M112.102 41.387L110.409 41.4506L109.367 38.8928L105.215 39.0487L104.368 41.6773L102.719 41.7392L106.08 31.706L107.999 31.634L112.102 41.387ZM105.616 37.7277L108.868 37.6056L107.076 33.0496L105.616 37.7277Z" fill="white"/>
<path d="M122.722 32.435L122.577 33.8074L119.206 33.4516L118.312 41.9245L116.715 41.7561L117.61 33.2831L114.238 32.9273L114.383 31.555L122.722 32.435Z" fill="white"/>
<path d="M127.294 33.3766L125.208 43.0542L123.639 42.7159L125.725 33.0383L127.294 33.3766Z" fill="white"/>
<path d="M135.984 35.627C136.891 35.9413 137.608 36.4067 138.135 37.0233C138.662 37.6399 138.981 38.3694 139.091 39.212C139.201 40.0545 139.083 40.9765 138.736 41.9781C138.389 42.9797 137.912 43.7773 137.304 44.371C136.696 44.9648 135.994 45.3407 135.198 45.499C134.403 45.6572 133.551 45.5791 132.644 45.2648C131.747 44.9538 131.034 44.49 130.507 43.8734C129.98 43.2569 129.661 42.5273 129.551 41.6848C129.441 40.8423 129.559 39.9202 129.906 38.9186C130.253 37.917 130.731 37.1194 131.338 36.5257C131.946 35.932 132.648 35.556 133.444 35.3978C134.239 35.2396 135.086 35.316 135.984 35.627ZM135.527 36.9451C134.941 36.7421 134.388 36.704 133.868 36.8307C133.357 36.9606 132.899 37.2462 132.492 37.6873C132.085 38.1284 131.752 38.7222 131.493 39.4686C131.238 40.2057 131.132 40.878 131.176 41.4857C131.222 42.084 131.406 42.5922 131.727 43.0102C132.057 43.4316 132.515 43.7437 133.101 43.9467C133.696 44.153 134.249 44.1911 134.76 44.0612C135.28 43.9345 135.744 43.6506 136.15 43.2095C136.56 42.7589 136.893 42.1651 137.149 41.4281C137.407 40.6816 137.513 40.0093 137.467 39.411C137.42 38.8127 137.231 38.3029 136.901 37.8816C136.58 37.4635 136.122 37.1514 135.527 36.9451Z" fill="white"/>
<path d="M151.287 42.8214L146.563 51.5215L144.889 50.6125L144.505 43.3035L144.499 41.3031L144.486 41.2959L143.773 42.735L140.724 48.3506L139.432 47.6491L144.156 38.949L145.817 39.8509L146.195 47.1395L146.2 49.1734L146.213 49.1806L146.933 47.7283L149.982 42.1128L151.287 42.8214Z" fill="white"/>
<path d="M157.903 47.1926C158.611 47.7323 159.12 48.3344 159.431 48.9988C159.747 49.6554 159.888 50.3785 159.851 51.1683L158.365 51.3365C158.415 50.6448 158.324 50.0541 158.094 49.5642C157.878 49.0725 157.512 48.6296 156.995 48.2355C156.613 47.9444 156.259 47.7566 155.934 47.672C155.609 47.5874 155.32 47.5871 155.067 47.6711C154.828 47.7532 154.627 47.9016 154.463 48.1164C154.276 48.3629 154.195 48.6412 154.223 48.9515C154.258 49.2678 154.471 49.6565 154.862 50.1176L156.187 51.6942C156.823 52.4432 157.17 53.11 157.227 53.6945C157.285 54.279 157.113 54.8336 156.713 55.3585C156.343 55.8435 155.891 56.1649 155.355 56.3227C154.82 56.4804 154.245 56.4759 153.63 56.309C153.024 56.1482 152.406 55.8282 151.778 55.3492C151.221 54.9248 150.775 54.4712 150.439 53.9886C150.103 53.5059 149.861 53.0139 149.715 52.5128C149.569 52.0116 149.51 51.5201 149.538 51.0383L151.094 50.8287C151.049 51.2343 151.068 51.6455 151.153 52.0622C151.244 52.4709 151.411 52.8622 151.654 53.2362C151.905 53.6162 152.237 53.9638 152.65 54.2791C153.016 54.5581 153.364 54.7538 153.693 54.8664C154.03 54.9851 154.33 55.0125 154.592 54.9486C154.869 54.8828 155.098 54.7306 155.28 54.492C155.456 54.2614 155.531 53.998 155.505 53.7018C155.487 53.4117 155.304 53.0582 154.956 52.6414L153.526 50.929C153.128 50.4618 152.846 50.0146 152.682 49.5872C152.517 49.1599 152.462 48.7535 152.517 48.3679C152.579 47.9744 152.739 47.6066 153 47.2647C153.34 46.8194 153.765 46.5088 154.277 46.3328C154.802 46.155 155.377 46.1345 156.002 46.2715C156.633 46.4005 157.267 46.7076 157.903 47.1926Z" fill="white"/>
<path d="M163.891 61.9979C163.499 61.5569 163.311 61.0748 163.328 60.5516C163.359 60.0293 163.587 59.5788 164.013 59.2001C164.447 58.8148 164.917 58.6441 165.425 58.6881C165.946 58.733 166.403 58.9759 166.795 59.4169C167.193 59.8653 167.381 60.3474 167.358 60.8631C167.342 61.3722 167.117 61.8194 166.684 62.2047C166.258 62.5834 165.784 62.7574 165.261 62.7266C164.746 62.6892 164.29 62.4463 163.891 61.9979Z" fill="white"/>
<path d="M178.739 70.4869C179.22 71.3174 179.459 72.1382 179.456 72.9494C179.452 73.7607 179.217 74.5213 178.75 75.2312C178.283 75.9412 177.591 76.5621 176.674 77.0938C175.757 77.6255 174.875 77.9177 174.027 77.9702C173.179 78.0227 172.402 77.849 171.696 77.4491C170.99 77.0492 170.396 76.4341 169.915 75.6036C169.438 74.7818 169.202 73.9652 169.205 73.154C169.209 72.3428 169.444 71.5822 169.911 70.8722C170.378 70.1622 171.07 69.5414 171.987 69.0096C172.904 68.4779 173.786 68.1858 174.634 68.1333C175.482 68.0808 176.259 68.2544 176.965 68.6543C177.671 69.0542 178.262 69.6651 178.739 70.4869ZM177.532 71.1867C177.221 70.6503 176.827 70.2602 176.35 70.0164C175.879 69.7813 175.345 69.6978 174.749 69.7661C174.153 69.8344 173.513 70.0667 172.829 70.463C172.155 70.8543 171.635 71.2942 171.271 71.7827C170.916 72.2662 170.723 72.771 170.693 73.2971C170.668 73.8319 170.811 74.3675 171.122 74.9038C171.438 75.4488 171.831 75.8389 172.303 76.074C172.78 76.3179 173.316 76.4056 173.912 76.3373C174.517 76.264 175.157 76.0318 175.832 75.6405C176.515 75.2442 177.034 74.8043 177.39 74.3208C177.745 73.8372 177.936 73.3281 177.961 72.7933C177.991 72.2672 177.848 71.7317 177.532 71.1867Z" fill="white"/>
<path d="M185.386 85.2518L179.685 87.4345C178.461 87.9028 177.418 87.9328 176.555 87.5243C175.692 87.1159 175.024 86.2953 174.552 85.0625C174.088 83.8485 174.038 82.7966 174.404 81.9069C174.774 81.0265 175.571 80.3522 176.794 79.8838L182.496 77.7012L183.069 79.2001L177.55 81.313C176.681 81.6455 176.109 82.079 175.831 82.6134C175.554 83.1479 175.562 83.798 175.855 84.5638C176.152 85.3389 176.582 85.8329 177.145 86.0455C177.708 86.2582 178.424 86.1983 179.293 85.8658L184.812 83.7529L185.386 85.2518Z" fill="white"/>
<path d="M187.659 93.7301C187.88 94.7667 187.796 95.6435 187.408 96.3605C187.021 97.0873 186.387 97.5447 185.507 97.7327C184.598 97.9269 183.828 97.7692 183.197 97.2596C182.579 96.7577 182.159 95.9884 181.938 94.9518L181.818 94.8239L181.339 92.5795L177.466 93.4065L177.134 91.8516L186.816 89.784L187.659 93.7301ZM183.13 94.5744C183.266 95.2101 183.493 95.6524 183.812 95.9012C184.143 96.1578 184.578 96.2286 185.115 96.1138C185.644 96.001 186.006 95.7599 186.203 95.3906C186.403 95.0311 186.434 94.5334 186.299 93.8978L185.813 91.624L182.645 92.3007L183.13 94.5744ZM183.005 95.5675L178.823 99.7583L178.438 97.954L182.101 94.3495L183.005 95.5675Z" fill="white"/>
<path d="M180.927 108.486L180.921 113.946L179.541 113.944L179.548 106.879L189.448 106.89L189.446 108.495L180.927 108.486Z" fill="white"/>
<path d="M188.824 121.592C188.683 122.542 188.358 123.333 187.85 123.965C187.341 124.597 186.684 125.045 185.876 125.31C185.068 125.574 184.14 125.628 183.092 125.473C182.043 125.317 181.171 124.995 180.475 124.508C179.779 124.02 179.28 123.4 178.977 122.648C178.674 121.895 178.593 121.044 178.734 120.094C178.874 119.155 179.198 118.369 179.706 117.737C180.215 117.104 180.872 116.656 181.68 116.392C182.488 116.128 183.416 116.073 184.464 116.229C185.513 116.385 186.385 116.706 187.081 117.194C187.777 117.681 188.276 118.301 188.579 119.054C188.882 119.806 188.963 120.653 188.824 121.592ZM187.444 121.387C187.535 120.774 187.47 120.224 187.249 119.736C187.027 119.258 186.662 118.86 186.153 118.542C185.644 118.224 184.999 118.007 184.217 117.891C183.446 117.776 182.766 117.797 182.176 117.952C181.597 118.108 181.132 118.383 180.78 118.776C180.427 119.178 180.205 119.686 180.114 120.299C180.022 120.923 180.087 121.473 180.309 121.951C180.53 122.439 180.894 122.841 181.403 123.16C181.922 123.479 182.567 123.696 183.339 123.811C184.12 123.927 184.8 123.907 185.38 123.75C185.959 123.593 186.425 123.314 186.778 122.911C187.129 122.519 187.351 122.011 187.444 121.387Z" fill="white"/>
<path d="M177.704 135.774C177.191 135.404 176.794 134.965 176.513 134.458C176.241 133.954 176.086 133.412 176.047 132.834C176.008 132.256 176.085 131.657 176.279 131.037C176.563 130.13 177.005 129.404 177.606 128.859C178.206 128.313 178.926 127.972 179.765 127.837C180.603 127.701 181.529 127.792 182.54 128.109C183.552 128.425 184.363 128.878 184.975 129.468C185.587 130.058 185.984 130.748 186.166 131.539C186.348 132.329 186.299 133.173 186.018 134.07C185.824 134.69 185.563 135.222 185.236 135.664C184.906 136.116 184.514 136.465 184.06 136.71C183.606 136.956 183.091 137.094 182.516 137.123L182.324 135.476C182.947 135.461 183.444 135.313 183.815 135.031C184.196 134.752 184.478 134.321 184.66 133.739C184.842 133.157 184.864 132.603 184.724 132.077C184.585 131.552 184.292 131.083 183.844 130.67C183.394 130.267 182.792 129.948 182.038 129.712C181.294 129.479 180.619 129.393 180.013 129.455C179.416 129.52 178.912 129.723 178.501 130.066C178.09 130.409 177.79 130.881 177.602 131.482C177.419 132.064 177.411 132.612 177.575 133.124C177.746 133.649 178.104 134.097 178.648 134.466L177.704 135.774Z" fill="white"/>
<path d="M170.814 144.37L171.555 142.846L174.302 143.132L176.121 139.396L174.201 137.411L174.924 135.927L182.19 143.619L181.35 145.345L170.814 144.37ZM177.097 140.372L175.673 143.299L180.536 143.864L177.097 140.372Z" fill="white"/>
<path d="M173.94 157.618L172.796 156.847L174.691 154.035L167.625 149.274L168.522 147.943L175.588 152.704L177.482 149.893L178.626 150.664L173.94 157.618Z" fill="white"/>
<path d="M171.041 161.146L163.462 154.778L164.494 153.549L172.074 159.917L171.041 161.146Z" fill="white"/>
<path d="M164.961 167.837C164.26 168.493 163.514 168.91 162.722 169.089C161.931 169.268 161.137 169.209 160.34 168.914C159.544 168.618 158.783 168.084 158.059 167.31C157.335 166.535 156.852 165.741 156.61 164.927C156.369 164.112 156.363 163.316 156.594 162.538C156.826 161.761 157.292 161.044 157.993 160.388C158.686 159.739 159.429 159.325 160.22 159.146C161.012 158.968 161.806 159.026 162.602 159.321C163.399 159.617 164.159 160.151 164.883 160.926C165.608 161.7 166.091 162.494 166.332 163.309C166.574 164.123 166.579 164.919 166.348 165.697C166.117 166.475 165.655 167.188 164.961 167.837ZM164.008 166.818C164.461 166.395 164.752 165.923 164.883 165.404C165.006 164.892 164.967 164.353 164.767 163.787C164.566 163.221 164.196 162.65 163.657 162.073C163.124 161.504 162.578 161.096 162.021 160.851C161.47 160.614 160.934 160.539 160.415 160.628C159.888 160.724 159.398 160.983 158.946 161.407C158.486 161.837 158.194 162.309 158.071 162.821C157.94 163.34 157.975 163.882 158.176 164.448C158.383 165.021 158.753 165.592 159.286 166.162C159.826 166.739 160.371 167.146 160.922 167.384C161.473 167.622 162.012 167.693 162.539 167.597C163.058 167.508 163.548 167.249 164.008 166.818Z" fill="white"/>
<path d="M151.63 177.955L146.108 169.738L147.69 168.675L154.345 171.721L156.12 172.643L156.133 172.634L155.188 171.336L151.624 166.032L152.844 165.212L158.366 173.429L156.797 174.483L150.163 171.441L148.358 170.503L148.345 170.512L149.299 171.823L152.862 177.127L151.63 177.955Z" fill="white"/>
<path d="M144.611 181.851C143.804 182.227 143.034 182.399 142.302 182.366C141.573 182.341 140.867 182.13 140.185 181.731L140.726 180.337C141.315 180.702 141.881 180.896 142.421 180.919C142.957 180.956 143.52 180.837 144.109 180.562C144.544 180.359 144.874 180.133 145.1 179.885C145.326 179.636 145.46 179.38 145.503 179.117C145.541 178.868 145.503 178.62 145.389 178.376C145.258 178.095 145.049 177.895 144.761 177.775C144.464 177.66 144.021 177.668 143.432 177.799L141.42 178.242C140.461 178.457 139.71 178.455 139.165 178.234C138.621 178.014 138.209 177.605 137.93 177.006C137.672 176.454 137.598 175.904 137.707 175.356C137.815 174.809 138.086 174.302 138.519 173.835C138.944 173.372 139.513 172.974 140.229 172.64C140.864 172.344 141.473 172.159 142.056 172.085C142.64 172.011 143.187 172.026 143.699 172.129C144.211 172.233 144.674 172.409 145.087 172.657L144.551 174.132C144.213 173.904 143.839 173.73 143.431 173.612C143.027 173.503 142.603 173.469 142.159 173.51C141.706 173.556 141.243 173.689 140.772 173.909C140.355 174.104 140.021 174.321 139.768 174.56C139.507 174.803 139.343 175.056 139.278 175.318C139.208 175.594 139.236 175.867 139.363 176.139C139.486 176.402 139.684 176.591 139.958 176.706C140.224 176.825 140.622 176.826 141.153 176.711L143.333 176.24C143.932 176.104 144.458 176.062 144.913 176.115C145.368 176.167 145.754 176.308 146.07 176.535C146.39 176.772 146.641 177.085 146.823 177.475C147.059 177.983 147.137 178.504 147.056 179.038C146.969 179.586 146.72 180.105 146.309 180.595C145.902 181.094 145.336 181.513 144.611 181.851Z" fill="white"/>
<path d="M128.612 180.307C129.185 180.167 129.699 180.226 130.154 180.485C130.601 180.756 130.893 181.168 131.029 181.722C131.167 182.285 131.099 182.78 130.823 183.209C130.54 183.649 130.112 183.939 129.539 184.08C128.956 184.223 128.442 184.164 127.997 183.903C127.554 183.651 127.263 183.244 127.125 182.681C126.989 182.127 127.057 181.626 127.328 181.179C127.601 180.741 128.029 180.45 128.612 180.307Z" fill="white"/>
</svg>
